<?xml version="1.0" standalone="no"?>
<!DOCTYPE svg PUBLIC "-//W3C//DTD SVG 20010904//EN"
 "http://www.w3.org/TR/2001/REC-SVG-20010904/DTD/svg10.dtd">
<svg version="1.0" xmlns="http://www.w3.org/2000/svg"
 width="180.000000pt" height="180.000000pt" viewBox="0 0 180.000000 180.000000"
 preserveAspectRatio="xMidYMid meet">
<metadata>
Created by potrace 1.14, written by Peter Selinger 2001-2017
</metadata>
<g transform="translate(0.000000,180.000000) scale(0.100000,-0.100000)"
fill="#000000" stroke="none">
<path d="M749 1636 c-148 -31 -269 -97 -378 -207 -157 -156 -231 -350 -218
-569 10 -161 58 -294 152 -419 93 -122 252 -227 405 -268 90 -24 292 -24 380
0 260 70 467 276 537 537 24 89 24 290 0 380 -68 257 -277 467 -532 535 -83
23 -263 28 -346 11z m254 -16 c85 -12 195 -51 267 -93 30 -17 96 -72 145 -122
74 -73 98 -106 132 -175 60 -122 76 -193 76 -330 0 -137 -16 -208 -76 -330
-34 -69 -58 -102 -132 -175 -100 -100 -164 -142 -274 -180 -200 -70 -429 -49
-611 58 -30 17 -96 72 -145 122 -74 73 -98 106 -132 175 -60 122 -76 193 -76
330 0 137 16 208 76 330 34 69 58 102 132 175 99 99 167 144 274 181 117 41
224 51 344 34z"/>
<path d="M788 1583 c-13 -3 -16 -9 -9 -21 5 -9 11 -33 13 -52 2 -26 -1 -35
-14 -38 -20 -4 -38 32 -38 74 0 17 -5 24 -20 24 -21 0 -27 -15 -10 -25 6 -3
10 -16 10 -28 0 -13 7 -33 16 -45 34 -49 88 -9 74 55 -5 19 -6 42 -3 49 3 8 4
13 2 13 -2 -1 -12 -3 -21 -6z"/>
<path d="M845 1530 c0 -48 3 -60 15 -60 12 0 15 9 12 38 l-4 37 26 -37 c15
-21 31 -38 35 -38 5 0 11 27 13 60 2 49 0 60 -12 60 -12 0 -15 -8 -12 -35 2
-19 2 -35 -1 -35 -3 0 -15 16 -27 35 -32 52 -45 45 -45 -25z"/>
<path d="M985 1548 c0 -18 -4 -45 -8 -60 -6 -23 -4 -28 11 -28 14 0 18 9 20
46 1 26 7 53 13 60 9 11 7 14 -12 14 -20 0 -24 -5 -24 -32z"/>
<path d="M1049 1572 c-3 -19 3 -84 10 -108 l7 -27 34 44 c19 24 38 46 42 47
13 6 9 22 -4 22 -7 0 -22 -15 -32 -33 l-19 -32 -8 28 c-4 16 -6 34 -3 42 3 7
-2 15 -10 18 -9 4 -16 3 -17 -1z"/>
<path d="M1163 1526 c3 -7 -6 -32 -19 -56 -14 -24 -23 -44 -22 -45 15 -13 67
-33 72 -28 12 12 6 23 -13 23 -24 0 -32 12 -21 30 7 11 12 11 23 2 12 -10 16
-9 21 3 3 9 0 15 -9 15 -16 0 -20 25 -6 35 5 3 16 -2 25 -10 10 -10 17 -12 21
-4 8 12 9 12 -32 33 -39 20 -47 20 -40 2z"/>
<path d="M577 1513 c-4 -3 -4 -24 0 -46 l6 -41 -32 23 c-17 13 -38 20 -47 17
-12 -4 -9 -14 16 -47 16 -23 30 -46 30 -51 0 -14 -27 -9 -75 14 -24 12 -48 19
-51 15 -4 -4 3 -30 15 -58 11 -28 21 -56 21 -61 0 -11 -59 27 -77 50 -6 7 -16
11 -22 7 -18 -10 -13 -19 19 -33 44 -20 37 -32 -17 -29 -47 2 -71 -16 -35 -27
10 -4 32 -20 49 -36 26 -26 32 -28 37 -14 4 9 5 17 4 18 -2 1 -16 8 -32 16
l-29 15 48 3 c35 2 53 9 65 25 12 14 14 24 8 28 -20 12 0 42 24 36 13 -4 32 2
50 15 l29 20 -22 24 c-26 28 -19 31 16 8 25 -16 25 -16 26 17 l1 34 11 -27
c12 -30 15 -32 36 -19 11 7 10 12 -6 28 -11 11 -26 34 -34 51 -14 32 -20 37
-32 25z m-107 -164 c0 -5 -4 -9 -10 -9 -5 0 -10 7 -10 16 0 8 5 12 10 9 6 -3
10 -10 10 -16z"/>
<path d="M1260 1466 c0 -8 -13 -28 -30 -46 -30 -32 -32 -50 -4 -50 8 0 14 7
14 15 0 8 5 15 11 15 7 0 9 -10 7 -24 -4 -17 4 -34 28 -60 37 -40 46 -43 69
-20 11 11 14 25 10 45 -5 22 -3 29 9 29 9 0 16 -7 16 -16 0 -8 5 -12 10 -9 16
10 11 34 -9 45 -32 17 -51 2 -51 -40 0 -43 -18 -64 -27 -31 -3 12 -12 21 -19
21 -21 0 -17 44 6 58 25 15 26 44 2 65 -23 21 -42 22 -42 3z m40 -30 c0 -16
-18 -31 -27 -22 -8 8 5 36 17 36 5 0 10 -6 10 -14z"/>
<path d="M757 1415 c-123 -34 -237 -119 -309 -229 -135 -209 -102 -497 76
-671 66 -64 164 -119 231 -130 l40 -6 -40 21 c-76 39 -117 92 -140 180 -9 36
-16 44 -31 42 -83 -15 -93 -14 -118 12 -51 50 -27 130 44 151 13 4 33 18 43
32 36 46 104 66 147 43 23 -13 131 40 155 76 15 24 15 26 -7 44 -35 30 -66 35
-104 16 -42 -19 -118 -22 -112 -3 3 6 29 15 59 19 30 4 73 10 97 14 36 5 45 3
61 -17 16 -20 29 -24 70 -24 28 0 51 -1 51 -2 0 -1 -20 -11 -44 -22 -24 -10
-52 -31 -61 -45 -9 -14 -36 -37 -60 -51 -24 -14 -47 -30 -50 -36 -10 -16 15
-39 42 -39 15 0 39 -14 59 -34 57 -57 42 -131 -34 -163 -42 -17 -32 -32 26
-40 59 -8 119 10 262 77 115 55 229 87 270 78 25 -5 50 113 45 217 -9 234
-167 432 -392 490 -69 18 -210 18 -276 0z m169 -60 c27 -14 60 -34 74 -45 14
-12 -6 -4 -44 17 -52 28 -81 37 -117 37 -65 0 -79 -15 -79 -79 0 -68 -25 -91
-108 -100 -83 -9 -97 -13 -123 -34 -29 -23 -31 -81 -4 -111 10 -11 14 -20 8
-20 -15 0 -41 32 -48 61 -16 66 54 119 158 119 28 0 63 6 77 13 22 11 25 19
25 71 0 49 4 61 24 77 33 27 96 25 157 -6z m37 -120 c15 0 27 -3 27 -6 0 -10
-28 -19 -61 -19 -19 0 -29 -5 -29 -15 0 -18 47 -20 98 -6 17 5 32 6 32 1 0
-14 -87 -30 -165 -30 -56 0 -86 -5 -115 -20 -22 -11 -62 -25 -90 -31 -44 -9
-51 -14 -48 -32 2 -14 11 -22 23 -23 60 -3 66 -7 20 -14 -27 -4 -53 -5 -57 -1
-4 3 -8 24 -10 46 l-3 40 57 6 c32 3 81 18 110 33 30 15 66 25 83 24 25 -3 30
0 28 17 -4 37 4 45 39 38 18 -4 45 -8 61 -8z m243 -90 c18 -14 17 -15 -11 -9
-16 4 -32 7 -35 8 -3 0 -38 -6 -78 -13 -52 -10 -76 -11 -83 -4 -8 8 4 14 42
21 83 15 143 14 165 -3z m-333 -25 c7 0 4 -5 -6 -11 -21 -12 -51 -4 -42 12 4
6 14 8 22 5 8 -3 20 -6 26 -6z m357 -33 l85 2 -65 -15 c-61 -14 -147 -13 -171
2 -19 11 13 24 41 16 14 -4 63 -6 110 -5z m75 -42 c-22 -7 -62 -25 -88 -40
-32 -18 -57 -26 -77 -23 -35 5 -39 -6 -9 -23 22 -11 80 -8 112 5 12 6 17 4 17
-9 0 -19 15 -18 103 9 26 8 47 13 47 11 0 -1 -31 -19 -69 -39 -69 -35 -101
-38 -101 -9 0 11 -5 13 -17 7 -10 -4 -35 -9 -55 -12 -33 -3 -43 1 -73 31 -19
19 -35 43 -35 52 0 14 7 16 53 10 42 -5 64 -3 103 13 68 28 76 30 104 30 19 0
16 -3 -15 -13z m91 -168 c-10 -7 -42 -30 -70 -53 -93 -75 -130 -83 -149 -34
-10 27 -14 29 -47 24 -19 -3 -57 -8 -85 -12 -56 -8 -69 -30 -38 -64 15 -17 27
-19 68 -15 l49 4 -23 -18 c-38 -31 -71 -34 -110 -13 -45 24 -65 62 -52 97 14
37 46 50 126 52 38 1 82 5 97 9 23 7 27 4 30 -16 5 -36 36 -33 123 12 74 37
124 54 81 27z"/>
<path d="M1405 1299 c-16 -16 -38 -29 -47 -29 -21 0 -23 -11 -7 -27 9 -9 22
-4 52 22 22 19 44 32 48 29 11 -6 11 -1 3 20 -8 21 -13 19 -49 -15z"/>
<path d="M1460 1272 c0 -6 5 -12 12 -14 17 -6 4 -21 -39 -43 -21 -10 -39 -20
-41 -21 -1 0 0 -8 4 -17 5 -13 12 -11 46 14 48 34 58 36 58 10 0 -11 5 -21 11
-23 18 -6 -33 -59 -59 -61 -15 -1 -21 -7 -19 -17 2 -8 10 -13 18 -10 8 3 37 4
66 3 41 -1 51 2 46 13 -3 9 -13 12 -23 9 -23 -7 -37 13 -16 21 22 9 19 31 -13
88 -26 47 -51 70 -51 48z"/>
<path d="M270 1191 c-17 -32 -12 -58 16 -80 33 -26 58 -27 84 -1 26 26 25 56
-1 71 -17 9 -23 8 -30 -2 -14 -22 -11 -28 12 -22 17 5 20 2 17 -13 -4 -23 -52
-31 -74 -13 -18 15 -18 48 1 55 19 8 19 24 0 24 -8 0 -19 -9 -25 -19z"/>
<path d="M230 1070 c0 -12 4 -18 11 -15 5 4 22 4 37 0 27 -7 26 -7 -17 -28
-59 -29 -62 -43 -11 -45 23 -1 49 -6 59 -12 19 -10 31 -4 31 15 0 7 -11 10
-29 7 -45 -6 -45 14 -1 32 22 9 40 20 40 25 0 5 -19 14 -42 19 -24 5 -51 13
-60 17 -14 5 -18 2 -18 -15z"/>
<path d="M1565 990 c-5 -8 -24 -11 -57 -8 -47 5 -49 4 -44 -16 3 -12 6 -25 6
-31 0 -5 4 -4 9 4 5 7 32 16 60 19 53 5 57 8 42 31 -7 10 -10 10 -16 1z"/>
<path d="M210 931 c0 -13 12 -16 52 -16 46 0 53 -3 53 -20 0 -18 -7 -20 -52
-20 -42 1 -53 -2 -53 -15 0 -13 9 -15 55 -10 63 7 68 10 68 45 0 35 -5 38 -68
45 -46 5 -55 3 -55 -9z"/>
<path d="M1466 895 c-13 -35 20 -65 72 -65 35 0 55 20 50 52 -2 18 -10 24 -35
26 -28 3 -33 -1 -39 -23 -8 -30 -30 -28 -27 4 3 24 -12 29 -21 6z m109 -25 c0
-18 -33 -26 -47 -12 -6 6 -7 15 -3 22 10 16 50 8 50 -10z"/>
<path d="M310 822 c0 -4 5 -13 11 -19 13 -13 4 -33 -17 -33 -8 0 -14 9 -14 20
0 12 -5 17 -14 14 -8 -3 -12 -13 -8 -26 4 -16 1 -19 -14 -16 -13 3 -18 11 -17
26 2 12 -2 22 -7 22 -11 0 -13 -33 -4 -66 5 -20 8 -21 32 -8 15 8 42 14 60 14
33 0 33 1 27 33 -4 17 -9 35 -12 40 -6 9 -23 9 -23 -1z"/>
<path d="M595 795 c-32 -31 -34 -93 -5 -120 23 -21 22 -21 40 23 7 18 29 46
49 63 35 29 35 31 17 45 -30 22 -74 17 -101 -11z"/>
<path d="M1490 789 c0 -16 -4 -19 -20 -14 -16 5 -20 2 -20 -15 0 -16 5 -20 15
-16 8 3 15 1 15 -5 0 -6 6 -9 14 -6 8 3 29 2 45 -3 39 -11 40 0 4 46 -32 38
-53 44 -53 13z m35 -19 c3 -5 1 -10 -4 -10 -6 0 -11 5 -11 10 0 6 2 10 4 10 3
0 8 -4 11 -10z"/>
<path d="M491 726 c-20 -24 -9 -69 21 -86 38 -21 58 -2 34 34 -9 14 -16 34
-16 46 0 23 -22 27 -39 6z"/>
<path d="M698 701 c-31 -28 -33 -33 -33 -98 0 -59 4 -76 28 -111 53 -81 138
-116 268 -111 74 4 95 9 162 42 42 21 103 62 135 92 56 52 131 160 119 172
-12 11 -142 -38 -212 -81 -155 -96 -245 -125 -326 -106 -88 21 -142 116 -88
154 12 8 28 12 35 9 17 -6 18 -35 2 -51 -9 -9 -9 -12 0 -12 21 0 52 39 52 65
0 66 -85 87 -142 36z"/>
<path d="M344 699 c-4 -7 -24 -9 -56 -6 -36 5 -48 3 -45 -6 2 -7 16 -11 30 -9
31 4 37 -17 7 -25 -21 -6 -24 -12 -14 -37 5 -13 12 -10 38 19 17 20 40 38 51
39 11 2 19 6 18 9 -2 4 -3 12 -3 17 0 14 -17 13 -26 -1z"/>
<path d="M1430 701 c0 -5 11 -16 24 -25 14 -8 33 -29 42 -46 10 -16 21 -30 25
-30 8 0 29 47 29 65 0 23 -17 18 -24 -7 -6 -22 -8 -22 -39 15 -30 35 -57 48
-57 28z"/>
<path d="M377 543 c-50 -35 -48 -50 3 -17 22 15 40 31 40 35 0 12 -1 12 -43
-18z"/>
<path d="M1380 562 c0 -5 18 -21 40 -36 45 -29 55 -21 13 10 -43 31 -53 36
-53 26z"/>
<path d="M467 493 c-4 -3 -7 -17 -7 -30 0 -18 9 -28 35 -39 19 -8 35 -19 35
-24 0 -15 -11 -12 -32 7 -33 30 -76 -18 -48 -52 19 -22 61 -19 67 5 3 11 11
20 18 20 19 0 48 38 42 54 -4 9 -12 13 -19 11 -7 -3 -21 8 -30 25 -16 28 -46
39 -61 23z m43 -27 c0 -16 -18 -31 -27 -22 -8 8 5 36 17 36 5 0 10 -6 10 -14z
m-12 -89 c2 -10 -3 -17 -12 -17 -18 0 -29 16 -21 31 9 14 29 6 33 -14z"/>
<path d="M1255 465 c-22 -18 -37 -37 -34 -40 4 -3 20 6 37 20 l30 25 27 -31
c17 -20 30 -28 36 -22 6 6 -3 23 -23 46 l-33 37 -40 -35z"/>
<path d="M1267 411 c-16 -17 -16 -19 3 -36 15 -14 17 -21 9 -32 -23 -26 9 -13
53 23 48 40 62 62 28 44 -17 -9 -25 -9 -39 4 -22 20 -31 19 -54 -3z m41 -21
c7 -11 9 -20 4 -20 -10 0 -32 22 -32 32 0 15 15 8 28 -12z"/>
<path d="M640 382 c0 -6 -3 -18 -6 -27 -5 -12 4 -20 35 -32 47 -19 56 -37 10
-21 -25 8 -33 8 -40 -3 -17 -27 -9 -47 22 -58 49 -17 56 -14 69 34 8 28 18 45
28 45 11 0 12 3 3 13 -6 8 -8 17 -4 20 3 4 -1 7 -10 7 -9 0 -17 -3 -17 -7 -1
-24 -18 -33 -44 -23 -20 7 -26 16 -24 32 2 11 -3 23 -9 25 -7 3 -13 0 -13 -5z
m50 -102 c11 -6 12 -12 4 -20 -14 -14 -44 -2 -37 16 6 16 12 17 33 4z"/>
<path d="M1110 386 c0 -2 7 -21 16 -41 13 -31 13 -39 2 -46 -22 -14 -29 -10
-18 10 6 13 7 22 0 26 -5 3 -7 12 -4 19 8 20 -50 18 -63 -2 -15 -25 2 -62 29
-63 13 0 17 -3 11 -6 -7 -2 -13 -9 -13 -14 0 -5 16 -2 36 6 45 18 44 18 44 0
0 -8 7 -15 15 -15 18 0 20 24 3 42 -15 15 -16 37 -5 56 5 8 3 12 -7 12 -9 0
-16 5 -16 10 0 6 -7 10 -15 10 -8 0 -15 -2 -15 -4z m-23 -72 c-9 -9 -28 6 -21
18 4 6 10 6 17 -1 6 -6 8 -13 4 -17z"/>
<path d="M832 298 c3 -40 5 -43 36 -46 26 -3 32 -7 32 -28 0 -13 5 -24 10 -24
6 0 10 18 10 40 0 22 5 40 10 40 6 0 10 -18 10 -40 0 -22 5 -40 10 -40 6 0 10
30 10 70 0 55 -3 70 -15 70 -9 0 -12 -6 -9 -15 4 -8 1 -15 -5 -15 -6 0 -11 7
-11 15 0 8 -4 15 -10 15 -5 0 -10 -18 -10 -40 0 -33 -3 -40 -20 -40 -16 0 -20
7 -20 30 0 21 5 30 16 30 8 0 12 5 9 10 -3 6 -17 10 -31 10 -23 0 -25 -3 -22
-42z"/>
</g>
</svg>
